<?xml version="1.0" encoding="UTF-8"?>
<svg version="1.1" xmlns="http://www.w3.org/2000/svg" width="100" height="100">
<path d="M0 0 C11.63432854 -0.61482224 21.12771173 6.35929278 29.421875 13.7109375 C37.74605667 23.19125551 38.17485753 33.13000203 37.671875 45.2734375 C37.44828177 47.65716872 37.12007267 49.92039971 36.671875 52.2734375 C36.011875 52.2734375 35.351875 52.2734375 34.671875 52.2734375 C34.89875 52.8715625 35.125625 53.4696875 35.359375 54.0859375 C35.4625 54.8078125 35.565625 55.5296875 35.671875 56.2734375 C34.3828125 57.6796875 34.3828125 57.6796875 32.671875 59.2734375 C31.12056892 61.11684701 29.59480057 62.97884959 28.07421875 64.84765625 C27.61144531 65.31816406 27.14867188 65.78867188 26.671875 66.2734375 C26.011875 66.2734375 25.351875 66.2734375 24.671875 66.2734375 C24.671875 66.9334375 24.671875 67.5934375 24.671875 68.2734375 C21.91674261 70.70968882 19.08174577 72.07815217 15.671875 73.3984375 C14.4034375 73.89730469 14.4034375 73.89730469 13.109375 74.40625 C5.60425676 77.07634014 -4.16008871 77.80323965 -11.875 75.51953125 C-13.78684962 74.54448795 -15.53379902 73.44819801 -17.328125 72.2734375 C-19.43101971 71.29359408 -21.5454864 70.34377823 -23.6640625 69.3984375 C-25.76686457 67.97682483 -26.29380101 66.56122192 -27.328125 64.2734375 C-28.111875 63.4071875 -28.895625 62.5409375 -29.703125 61.6484375 C-34.81476328 55.65965419 -36.93477685 48.00928438 -37.328125 40.2734375 C-36.890625 37.2734375 -36.890625 37.2734375 -36.328125 35.2734375 C-36.988125 34.9434375 -37.648125 34.6134375 -38.328125 34.2734375 C-37.85375 33.2215625 -37.379375 32.1696875 -36.890625 31.0859375 C-35.63488759 28.17167899 -34.80578119 25.42596836 -34.328125 22.2734375 C-33.668125 22.2734375 -33.008125 22.2734375 -32.328125 22.2734375 C-32.10125 21.4071875 -31.874375 20.5409375 -31.640625 19.6484375 C-28.94832361 12.72537677 -24.21209809 9.10113049 -18.015625 5.4609375 C-17.07686523 4.87022461 -17.07686523 4.87022461 -16.11914062 4.26757812 C-10.68209281 1.01650235 -6.2212968 0.73068922 0 0 Z M-16.828125 12.8984375 C-18.328125 14.2734375 -18.328125 14.2734375 -21.328125 14.2734375 C-27.89801657 19.73056322 -31.70396278 27.04205727 -32.70703125 35.44921875 C-33.06672882 45.32349733 -30.87991293 52.53170957 -24.578125 60.1484375 C-18.25889091 66.79594349 -10.15600299 70.21909834 -0.953125 70.5859375 C7.27579002 70.37565858 14.61426027 67.26996986 20.48828125 61.484375 C24.28779365 57.37550773 26.82310408 53.6251428 28.671875 48.2734375 C29.084375 47.2009375 29.496875 46.1284375 29.921875 45.0234375 C31.26994236 38.28310072 30.61341095 31.51887252 27.671875 25.2734375 C27.011875 24.6134375 26.351875 23.9534375 25.671875 23.2734375 C25.40375 22.6753125 25.135625 22.0771875 24.859375 21.4609375 C21.64790056 15.54506353 15.04716556 10.39853435 8.671875 8.2734375 C0.2621311 6.04732882 -10.55067775 6.09786965 -16.828125 12.8984375 Z " fill="#C6C6C6" transform="translate(50.328125,9.7265625)"/>
<path d="M0 0 C0.99 0.66 1.98 1.32 3 2 C2.236875 2.70125 1.47375 3.4025 0.6875 4.125 C-4.12512299 9.27338739 -5.38570234 13.37185058 -5.1875 20.375 C-5.16042969 21.62023437 -5.13335937 22.86546875 -5.10546875 24.1484375 C-5.07066406 25.08945312 -5.03585938 26.03046875 -5 27 C-4.34 27 -3.68 27 -3 27 C-2.855625 27.78375 -2.71125 28.5675 -2.5625 29.375 C-2.12201075 31.96421018 -2.12201075 31.96421018 -1 34 C-0.01 34.33 0.98 34.66 2 35 C2.53625 35.639375 3.0725 36.27875 3.625 36.9375 C7.08288473 39.9403999 10.47901761 40.66110658 15 41 C19.97652769 40.55328807 23.62925128 39.84774147 27 36 C27.99 36.495 27.99 36.495 29 37 C29 38.65 29 40.3 29 42 C19.7359035 47.20508515 12.24876937 50.66721916 1.6875 47.75 C-1.84722259 46.54775109 -4.8448526 45.00782107 -8 43 C-8.99 43 -9.98 43 -11 43 C-10.67 42.01 -10.34 41.02 -10 40 C-10.99623944 37.78116524 -10.99623944 37.78116524 -12.4375 35.4375 C-15.65847157 29.26471882 -16.0632891 24.17038539 -14.34765625 17.44140625 C-13.40795155 14.5194389 -12.37273194 11.74546388 -11 9 C-10.34 9 -9.68 9 -9 9 C-9 7.68 -9 6.36 -9 5 C-8.21625 4.71125 -7.4325 4.4225 -6.625 4.125 C-3.90328368 3.15087746 -3.90328368 3.15087746 -2 1 C-1.34 0.67 -0.68 0.34 0 0 Z " fill="#C8C8C8" transform="translate(41,25)"/>
<path d="M0 0 C1 3 1 3 0 6 C0.99 6.33 1.98 6.66 3 7 C2.2575 7.2475 1.515 7.495 0.75 7.75 C-2.20124062 9.09147301 -3.84814974 10.60905526 -6 13 C-6.99 12.67 -7.98 12.34 -9 12 C-9.33 12.99 -9.66 13.98 -10 15 C-11.1446875 16.0209375 -11.1446875 16.0209375 -12.3125 17.0625 C-18.33477668 23.64498847 -19.69777144 31.07085488 -19.37890625 39.82421875 C-18.35552294 48.40164793 -14.51112904 55.32901665 -8 61 C-5.97403748 62.25132979 -3.98427993 63.27472819 -1.796875 64.2109375 C-0 65 -0 65 3 67 C1.68 67 0.36 67 -1 67 C-1 67.99 -1 68.98 -1 70 C0.65 70.66 2.3 71.32 4 72 C3.67 72.66 3.34 73.32 3 74 C1.09999743 73.04999872 -0.79937545 72.09871419 -2.6953125 71.140625 C-4.19868323 70.3965839 -5.7142149 69.67648802 -7.2421875 68.984375 C-7.94601563 68.65953125 -8.64984375 68.3346875 -9.375 68 C-10.02210937 67.71125 -10.66921875 67.4225 -11.3359375 67.125 C-13.43873957 65.70338733 -13.96567601 64.28778442 -15 62 C-15.78375 61.13375 -16.5675 60.2675 -17.375 59.375 C-22.48663828 53.38621669 -24.60665185 45.73584688 -25 38 C-24.5625 35 -24.5625 35 -24 33 C-24.66 32.67 -25.32 32.34 -26 32 C-25.525625 30.948125 -25.05125 29.89625 -24.5625 28.8125 C-23.30676259 25.89824149 -22.47765619 23.15253086 -22 20 C-21.34 20 -20.68 20 -20 20 C-19.773125 19.13375 -19.54625 18.2675 -19.3125 17.375 C-15.78280545 8.29864258 -8.02371935 4.62861702 0 0 Z " fill="#A3A3A3" transform="translate(38,12)"/>
<path d="M0 0 C9.76000272 -0.63883654 18.52501747 4.31943862 25.9609375 10.234375 C25.3009375 10.894375 24.6409375 11.554375 23.9609375 12.234375 C23.79416468 15.81781476 23.79416468 15.81781476 23.9609375 19.234375 C15.9609375 13.234375 15.9609375 13.234375 13.85546875 11.5390625 C11.42349591 9.86426058 9.85813274 10.16008794 6.9609375 10.234375 C5.9709375 9.574375 4.9809375 8.914375 3.9609375 8.234375 C1.68180812 7.78042948 1.68180812 7.78042948 -0.7265625 7.609375 C-1.93892578 7.49722656 -1.93892578 7.49722656 -3.17578125 7.3828125 C-3.79066406 7.33382813 -4.40554687 7.28484375 -5.0390625 7.234375 C-5.3690625 7.894375 -5.6990625 8.554375 -6.0390625 9.234375 C-9.0090625 8.739375 -9.0090625 8.739375 -12.0390625 8.234375 C-11.2890625 3.484375 -11.2890625 3.484375 -9.0390625 1.234375 C-6.02933945 0.62014581 -3.04716848 0.35024925 0 0 Z " fill="#C6C6C6" transform="translate(50.0390625,9.765625)"/>
<path d="M0 0 C1 3 1 3 0 6 C0.99 6.33 1.98 6.66 3 7 C2.2575 7.2475 1.515 7.495 0.75 7.75 C-2.20124062 9.09147301 -3.84814974 10.60905526 -6 13 C-6.99 12.67 -7.98 12.34 -9 12 C-9.33 12.99 -9.66 13.98 -10 15 C-11.1446875 16.0209375 -11.1446875 16.0209375 -12.3125 17.0625 C-17.18817816 22.39172962 -19.26059303 28.29270909 -19.125 35.5 C-19.06570312 36.3146875 -19.00640625 37.129375 -18.9453125 37.96875 C-19 40 -19 40 -21 42 C-21.33 38.37 -21.66 34.74 -22 31 C-22.33 31.66 -22.66 32.32 -23 33 C-23.99 32.67 -24.98 32.34 -26 32 C-25.525625 30.948125 -25.05125 29.89625 -24.5625 28.8125 C-23.30676259 25.89824149 -22.47765619 23.15253086 -22 20 C-21.34 20 -20.68 20 -20 20 C-19.773125 19.13375 -19.54625 18.2675 -19.3125 17.375 C-15.78280545 8.29864258 -8.02371935 4.62861702 0 0 Z " fill="#AEAEAE" transform="translate(38,12)"/>
<path d="M0 0 C8.25 0 16.5 0 25 0 C25.33 1.32 25.66 2.64 26 4 C22.50896374 7.49103626 18.53055722 7.20488082 13.75 7.3125 C7.69357156 7.29201603 4.09492089 6.19681311 -1 3 C-0.67 2.01 -0.34 1.02 0 0 Z " fill="#CFCFCF" transform="translate(37,79)"/>
<path d="M0 0 C6.70588235 3.41176471 6.70588235 3.41176471 8 6 C7.01 6.495 7.01 6.495 6 7 C6 9.31 6 11.62 6 14 C-2.44646925 7.84965831 -2.44646925 7.84965831 -6 4 C-5.01 4 -4.02 4 -3 4 C-2.67 3.01 -2.34 2.02 -2 1 C-1.34 0.67 -0.68 0.34 0 0 Z " fill="#BABABA" transform="translate(68,15)"/>
<path d="M0 0 C4.03520597 1.58962659 8.01811282 3.28232318 12 5 C10.68 5.33 9.36 5.66 8 6 C8 6.99 8 7.98 8 9 C10.475 9.99 10.475 9.99 13 11 C12.67 11.66 12.34 12.32 12 13 C6.66666667 10.33333333 1.33333333 7.66666667 -4 5 C-3.34 4.34 -2.68 3.68 -2 3 C-1.34 2.01 -0.68 1.02 0 0 Z " fill="#9A9A9A" transform="translate(29,73)"/>
<path d="M0 0 C0.33 0 0.66 0 1 0 C1.33 5.94 1.66 11.88 2 18 C1.01 18 0.02 18 -1 18 C-2.65973576 11.65470252 -3.49302922 7.16696703 -1 1 C-0.67 0.67 -0.34 0.34 0 0 Z " fill="#B3B3B3" transform="translate(16,42)"/>
<path d="M0 0 C0.99 0.66 1.98 1.32 3 2 C2.236875 2.70125 1.47375 3.4025 0.6875 4.125 C-1.96590478 6.96352604 -3.44000743 9.46949051 -5 13 C-5.66 11.68 -6.32 10.36 -7 9 C-7.66 9 -8.32 9 -9 9 C-9 7.68 -9 6.36 -9 5 C-8.21625 4.71125 -7.4325 4.4225 -6.625 4.125 C-3.90328368 3.15087746 -3.90328368 3.15087746 -2 1 C-1.34 0.67 -0.68 0.34 0 0 Z " fill="#7F7F7F" transform="translate(41,25)"/>
<path d="M0 0 C1 3 1 3 0 6 C0.99 6.33 1.98 6.66 3 7 C2.2575 7.2475 1.515 7.495 0.75 7.75 C-2.20124062 9.09147301 -3.84814974 10.60905526 -6 13 C-6.66 12.34 -7.32 11.68 -8 11 C-7.505 10.236875 -7.01 9.47375 -6.5 8.6875 C-4.75631692 6.07636249 -4.75631692 6.07636249 -5 3 C-2.5 1.3125 -2.5 1.3125 0 0 Z " fill="#898989" transform="translate(38,12)"/>
<path d="M0 0 C0.28875 0.598125 0.5775 1.19625 0.875 1.8125 C2.04742026 4.19327792 2.04742026 4.19327792 4 7 C4.125 10.1875 4.125 10.1875 4 13 C2.68 13 1.36 13 0 13 C-1.25664978 10.09399739 -2 8.20395416 -2 5 C-1.34 5 -0.68 5 0 5 C0 3.35 0 1.7 0 0 Z " fill="#C6C6C6" transform="translate(18,55)"/>
<path d="M0 0 C-3.81818182 6.54545455 -3.81818182 6.54545455 -6 9 C-6.99 9 -7.98 9 -9 9 C-8.3001048 5.85047161 -7.34839851 2.9347497 -6 0 C-3.50907189 -1.24546405 -2.58919267 -0.7767578 0 0 Z " fill="#C4C4C4" transform="translate(34,18)"/>
<path d="M0 0 C0.99 0 1.98 0 3 0 C2.690625 0.53625 2.38125 1.0725 2.0625 1.625 C0.82172561 4.3984957 0.4090325 7.00042837 0 10 C-0.33 9.34 -0.66 8.68 -1 8 C-2.98 8.99 -2.98 8.99 -5 10 C-4.49942848 5.61999924 -3.06806466 3.15830185 0 0 Z " fill="#8C8C8C" transform="translate(25,20)"/>
<path d="M0 0 C0.99 0.33 1.98 0.66 3 1 C3 2.65 3 4.3 3 6 C-1.01804691 6.84098656 -4.01803543 7.05404945 -8 6 C-7.4225 5.7525 -6.845 5.505 -6.25 5.25 C-3.6997003 3.83316683 -1.98214299 2.12372463 0 0 Z " fill="#4B4B4B" transform="translate(67,61)"/>
<path d="M0 0 C0.33 1.32 0.66 2.64 1 4 C1.66 4 2.32 4 3 4 C4.17881287 7.68379022 4.21358801 11.15541573 4 15 C3.34 15.66 2.68 16.32 2 17 C1.67 13.37 1.34 9.74 1 6 C0.67 6.66 0.34 7.32 0 8 C-0.99 7.67 -1.98 7.34 -3 7 C-2.01 4.69 -1.02 2.38 0 0 Z " fill="#5F5F5F" transform="translate(15,37)"/>
<path d="M0 0 C0.33 0.66 0.66 1.32 1 2 C-1.375 3.5625 -1.375 3.5625 -4 5 C-4.66 4.67 -5.32 4.34 -6 4 C-6 3.34 -6 2.68 -6 2 C-7.65 1.67 -9.3 1.34 -11 1 C-6.78915963 -1.80722691 -4.88445782 -0.94537893 0 0 Z " fill="#B3B3B3" transform="translate(64,67)"/>
<path d="M0 0 C2.0625 0.4375 2.0625 0.4375 4 1 C4 1.99 4 2.98 4 4 C3.34 4 2.68 4 2 4 C2 4.99 2 5.98 2 7 C1.01 6.67 0.02 6.34 -1 6 C-1.042721 4.33388095 -1.04063832 2.66617115 -1 1 C-0.67 0.67 -0.34 0.34 0 0 Z " fill="#E7E7E7" transform="translate(74,21)"/>
<path d="M0 0 C1.32 0.33 2.64 0.66 4 1 C3.34 2.98 2.68 4.96 2 7 C0.68 5.68 -0.64 4.36 -2 3 C-1.34 2.67 -0.68 2.34 0 2 C0 1.34 0 0.68 0 0 Z " fill="#EFEFEF" transform="translate(34,61)"/>
<path d="M0 0 C1.52299523 2.93720508 2.80100302 5.9168649 4 9 C2.68 8.34 1.36 7.68 0 7 C-0.33 7.99 -0.66 8.98 -1 10 C-1.33 8.35 -1.66 6.7 -2 5 C-1.34 5 -0.68 5 0 5 C0 3.35 0 1.7 0 0 Z " fill="#7B7B7B" transform="translate(18,55)"/>
<path d="M0 0 C0.33 0 0.66 0 1 0 C1.1953125 6.0546875 1.1953125 6.0546875 1 8 C0.34 8.66 -0.32 9.32 -1 10 C-2.25 3.375 -2.25 3.375 0 0 Z " fill="#E8E8E8" transform="translate(16,42)"/>
<path d="M0 0 C2.475 0.99 2.475 0.99 5 2 C3.3125 4.0625 3.3125 4.0625 1 6 C-1.75 5.75 -1.75 5.75 -4 5 C-3.34 4.34 -2.68 3.68 -2 3 C-1.34 2.01 -0.68 1.02 0 0 Z " fill="#787878" transform="translate(29,73)"/>
<path d="M0 0 C1.32 0.33 2.64 0.66 4 1 C3.67 2.65 3.34 4.3 3 6 C1.5 4.6875 1.5 4.6875 0 3 C0 2.01 0 1.02 0 0 Z " fill="#DADADA" transform="translate(25,71)"/>
<path d="M0 0 C0.66 0.33 1.32 0.66 2 1 C2 1.66 2 2.32 2 3 C1.01 2.67 0.02 2.34 -1 2 C-0.67 1.34 -0.34 0.68 0 0 Z " fill="#040404" transform="translate(38,74)"/>
<path d="M0 0 C0.99 0.33 1.98 0.66 3 1 C2.67 1.66 2.34 2.32 2 3 C1.34 2.01 0.68 1.02 0 0 Z " fill="#040404" transform="translate(66,28)"/>
<path d="M0 0 C4 1 4 1 4 1 Z " fill="#040404" transform="translate(51,77)"/>
<path d="M0 0 C0.33 0.99 0.66 1.98 1 3 C0.34 2.67 -0.32 2.34 -1 2 C-0.67 1.34 -0.34 0.68 0 0 Z " fill="#030303" transform="translate(21,76)"/>
<path d="M0 0 C0.99 0.33 1.98 0.66 3 1 C2.01 1 1.02 1 0 1 C0 0.67 0 0.34 0 0 Z " fill="#040404" transform="translate(84,26)"/>
<path d="" fill="#040404" transform="translate(0,0)"/>
<path d="M0 0 C0.66 0 1.32 0 2 0 C1.67 0.66 1.34 1.32 1 2 C0.67 1.34 0.34 0.68 0 0 Z " fill="#040404" transform="translate(68,69)"/>
<path d="M0 0 C0.33 0.66 0.66 1.32 1 2 C0.34 1.67 -0.32 1.34 -1 1 C-0.67 0.67 -0.34 0.34 0 0 Z " fill="#060606" transform="translate(45,57)"/>
<path d="" fill="#040404" transform="translate(0,0)"/>
<path d="M0 0 C0.99 0.495 0.99 0.495 2 1 C1.01 1.495 1.01 1.495 0 2 C0 1.34 0 0.68 0 0 Z " fill="#030303" transform="translate(86,24)"/>
<path d="M0 0 C0.99 0.495 0.99 0.495 2 1 C1.01 1.495 1.01 1.495 0 2 C0 1.34 0 0.68 0 0 Z " fill="#030303" transform="translate(70,12)"/>
<path d="M0 0 C0.66 0 1.32 0 2 0 C1.67 0.66 1.34 1.32 1 2 C0.67 1.34 0.34 0.68 0 0 Z " fill="#030303" transform="translate(66,12)"/>
<path d="M0 0 C2 1 2 1 2 1 Z " fill="#030303" transform="translate(49,87)"/>
<path d="" fill="#030303" transform="translate(0,0)"/>
<path d="M0 0 C2 1 2 1 2 1 Z " fill="#040404" transform="translate(59,86)"/>
<path d="M0 0 C2 1 2 1 2 1 Z " fill="#030303" transform="translate(42,86)"/>
<path d="M0 0 C2 1 2 1 2 1 Z " fill="#040404" transform="translate(32,85)"/>
<path d="" fill="#070707" transform="translate(0,0)"/>
<path d="M0 0 C2 1 2 1 2 1 Z " fill="#040404" transform="translate(18,77)"/>
<path d="M0 0 C2 1 2 1 2 1 Z " fill="#030303" transform="translate(77,76)"/>
<path d="M0 0 C2 1 2 1 2 1 Z " fill="#040404" transform="translate(57,76)"/>
<path d="M0 0 C2 1 2 1 2 1 Z " fill="#030303" transform="translate(52,75)"/>
<path d="M0 0 C2 1 2 1 2 1 Z " fill="#030303" transform="translate(32,71)"/>
<path d="" fill="#040404" transform="translate(0,0)"/>
<path d="M0 0 C2 1 2 1 2 1 Z " fill="#050505" transform="translate(26,65)"/>
<path d="M0 0 C2 1 2 1 2 1 Z " fill="#040404" transform="translate(25,62)"/>
<path d="" fill="#030303" transform="translate(0,0)"/>
<path d="" fill="#070707" transform="translate(0,0)"/>
<path d="M0 0 C2 1 2 1 2 1 Z " fill="#030303" transform="translate(21,60)"/>
<path d="" fill="#040404" transform="translate(0,0)"/>
<path d="" fill="#040404" transform="translate(0,0)"/>
<path d="" fill="#050505" transform="translate(0,0)"/>
<path d="" fill="#030303" transform="translate(0,0)"/>
<path d="" fill="#030303" transform="translate(0,0)"/>
<path d="M0 0 C2 1 2 1 2 1 Z " fill="#040404" transform="translate(36,49)"/>
<path d="" fill="#030303" transform="translate(0,0)"/>
<path d="" fill="#030303" transform="translate(0,0)"/>
<path d="" fill="#040404" transform="translate(0,0)"/>
<path d="" fill="#030303" transform="translate(0,0)"/>
<path d="" fill="#040404" transform="translate(0,0)"/>
<path d="" fill="#030303" transform="translate(0,0)"/>
<path d="M0 0 C2 1 2 1 2 1 Z " fill="#030303" transform="translate(24,41)"/>
<path d="M0 0 C2 1 2 1 2 1 Z " fill="#030303" transform="translate(26,38)"/>
<path d="M0 0 C2 1 2 1 2 1 Z " fill="#050505" transform="translate(23,38)"/>
<path d="" fill="#030303" transform="translate(0,0)"/>
<path d="" fill="#060606" transform="translate(0,0)"/>
<path d="" fill="#030303" transform="translate(0,0)"/>
<path d="" fill="#030303" transform="translate(0,0)"/>
<path d="M0 0 C2 1 2 1 2 1 Z " fill="#050505" transform="translate(23,33)"/>
<path d="M0 0 C2 1 2 1 2 1 Z " fill="#050505" transform="translate(73,31)"/>
<path d="" fill="#030303" transform="translate(0,0)"/>
<path d="" fill="#070707" transform="translate(0,0)"/>
<path d="M0 0 C2 1 2 1 2 1 Z " fill="#040404" transform="translate(70,28)"/>
<path d="" fill="#040404" transform="translate(0,0)"/>
<path d="M0 0 C2 1 2 1 2 1 Z " fill="#040404" transform="translate(44,27)"/>
<path d="M0 0 C2 1 2 1 2 1 Z " fill="#040404" transform="translate(17,26)"/>
<path d="M0 0 C2 1 2 1 2 1 Z " fill="#040404" transform="translate(54,22)"/>
<path d="M0 0 C2 1 2 1 2 1 Z " fill="#040404" transform="translate(60,21)"/>
<path d="M0 0 C2 1 2 1 2 1 Z " fill="#030303" transform="translate(47,19)"/>
<path d="M0 0 C2 1 2 1 2 1 Z " fill="#040404" transform="translate(68,11)"/>
<path d="M0 0 C2 1 2 1 2 1 Z " fill="#050505" transform="translate(33,10)"/>
<path d="M0 0 C2 1 2 1 2 1 Z " fill="#050505" transform="translate(67,9)"/>
<path d="M0 0 C2 1 2 1 2 1 Z " fill="#060606" transform="translate(59,9)"/>
<path d="M0 0 C2 1 2 1 2 1 Z " fill="#030303" transform="translate(36,8)"/>
<path d="" fill="#040404" transform="translate(0,0)"/>
<path d="" fill="#030303" transform="translate(0,0)"/>
<path d="" fill="#030303" transform="translate(0,0)"/>
<path d="" fill="#050505" transform="translate(0,0)"/>
<path d="" fill="#090909" transform="translate(0,0)"/>
<path d="" fill="#090909" transform="translate(0,0)"/>
<path d="" fill="#030303" transform="translate(0,0)"/>
<path d="" fill="#060606" transform="translate(0,0)"/>
<path d="" fill="#060606" transform="translate(0,0)"/>
<path d="" fill="#030303" transform="translate(0,0)"/>
<path d="" fill="#030303" transform="translate(0,0)"/>
<path d="" fill="#080808" transform="translate(0,0)"/>
<path d="" fill="#030303" transform="translate(0,0)"/>
<path d="" fill="#040404" transform="translate(0,0)"/>
<path d="" fill="#030303" transform="translate(0,0)"/>
<path d="" fill="#050505" transform="translate(0,0)"/>
<path d="" fill="#030303" transform="translate(0,0)"/>
<path d="" fill="#030303" transform="translate(0,0)"/>
<path d="" fill="#050505" transform="translate(0,0)"/>
<path d="" fill="#050505" transform="translate(0,0)"/>
<path d="" fill="#060606" transform="translate(0,0)"/>
<path d="" fill="#070707" transform="translate(0,0)"/>
<path d="" fill="#040404" transform="translate(0,0)"/>
<path d="" fill="#060606" transform="translate(0,0)"/>
<path d="" fill="#070707" transform="translate(0,0)"/>
<path d="" fill="#060606" transform="translate(0,0)"/>
<path d="" fill="#040404" transform="translate(0,0)"/>
<path d="" fill="#030303" transform="translate(0,0)"/>
<path d="" fill="#040404" transform="translate(0,0)"/>
<path d="" fill="#040404" transform="translate(0,0)"/>
<path d="" fill="#050505" transform="translate(0,0)"/>
<path d="" fill="#030303" transform="translate(0,0)"/>
<path d="" fill="#080808" transform="translate(0,0)"/>
<path d="" fill="#040404" transform="translate(0,0)"/>
<path d="" fill="#080808" transform="translate(0,0)"/>
<path d="" fill="#030303" transform="translate(0,0)"/>
<path d="" fill="#050505" transform="translate(0,0)"/>
<path d="" fill="#030303" transform="translate(0,0)"/>
<path d="" fill="#080808" transform="translate(0,0)"/>
<path d="" fill="#030303" transform="translate(0,0)"/>
<path d="" fill="#030303" transform="translate(0,0)"/>
<path d="" fill="#040404" transform="translate(0,0)"/>
<path d="" fill="#060606" transform="translate(0,0)"/>
<path d="" fill="#040404" transform="translate(0,0)"/>
<path d="" fill="#030303" transform="translate(0,0)"/>
<path d="" fill="#0C0C0C" transform="translate(0,0)"/>
<path d="" fill="#050505" transform="translate(0,0)"/>
<path d="" fill="#050505" transform="translate(0,0)"/>
<path d="" fill="#030303" transform="translate(0,0)"/>
<path d="" fill="#040404" transform="translate(0,0)"/>
<path d="" fill="#040404" transform="translate(0,0)"/>
<path d="" fill="#050505" transform="translate(0,0)"/>
<path d="" fill="#040404" transform="translate(0,0)"/>
<path d="" fill="#070707" transform="translate(0,0)"/>
<path d="" fill="#070707" transform="translate(0,0)"/>
<path d="" fill="#080808" transform="translate(0,0)"/>
<path d="" fill="#040404" transform="translate(0,0)"/>
<path d="" fill="#050505" transform="translate(0,0)"/>
<path d="" fill="#070707" transform="translate(0,0)"/>
<path d="" fill="#080808" transform="translate(0,0)"/>
<path d="" fill="#030303" transform="translate(0,0)"/>
<path d="" fill="#040404" transform="translate(0,0)"/>
<path d="" fill="#0A0A0A" transform="translate(0,0)"/>
<path d="" fill="#050505" transform="translate(0,0)"/>
<path d="" fill="#080808" transform="translate(0,0)"/>
<path d="" fill="#030303" transform="translate(0,0)"/>
<path d="" fill="#090909" transform="translate(0,0)"/>
<path d="" fill="#040404" transform="translate(0,0)"/>
<path d="" fill="#040404" transform="translate(0,0)"/>
<path d="" fill="#060606" transform="translate(0,0)"/>
<path d="" fill="#080808" transform="translate(0,0)"/>
<path d="" fill="#030303" transform="translate(0,0)"/>
<path d="" fill="#030303" transform="translate(0,0)"/>
<path d="" fill="#030303" transform="translate(0,0)"/>
<path d="" fill="#030303" transform="translate(0,0)"/>
<path d="" fill="#060606" transform="translate(0,0)"/>
<path d="" fill="#060606" transform="translate(0,0)"/>
<path d="" fill="#030303" transform="translate(0,0)"/>
<path d="" fill="#030303" transform="translate(0,0)"/>
<path d="" fill="#040404" transform="translate(0,0)"/>
<path d="" fill="#060606" transform="translate(0,0)"/>
<path d="" fill="#030303" transform="translate(0,0)"/>
<path d="" fill="#040404" transform="translate(0,0)"/>
<path d="" fill="#030303" transform="translate(0,0)"/>
<path d="" fill="#030303" transform="translate(0,0)"/>
<path d="" fill="#030303" transform="translate(0,0)"/>
<path d="" fill="#040404" transform="translate(0,0)"/>
<path d="" fill="#040404" transform="translate(0,0)"/>
<path d="" fill="#050505" transform="translate(0,0)"/>
<path d="" fill="#050505" transform="translate(0,0)"/>
<path d="" fill="#060606" transform="translate(0,0)"/>
<path d="" fill="#070707" transform="translate(0,0)"/>
<path d="" fill="#060606" transform="translate(0,0)"/>
<path d="" fill="#040404" transform="translate(0,0)"/>
<path d="" fill="#040404" transform="translate(0,0)"/>
<path d="" fill="#080808" transform="translate(0,0)"/>
<path d="" fill="#030303" transform="translate(0,0)"/>
<path d="" fill="#050505" transform="translate(0,0)"/>
<path d="" fill="#030303" transform="translate(0,0)"/>
<path d="" fill="#030303" transform="translate(0,0)"/>
<path d="" fill="#030303" transform="translate(0,0)"/>
<path d="" fill="#040404" transform="translate(0,0)"/>
<path d="" fill="#050505" transform="translate(0,0)"/>
<path d="" fill="#030303" transform="translate(0,0)"/>
<path d="" fill="#030303" transform="translate(0,0)"/>
<path d="" fill="#060606" transform="translate(0,0)"/>
<path d="" fill="#030303" transform="translate(0,0)"/>
<path d="" fill="#040404" transform="translate(0,0)"/>
<path d="" fill="#030303" transform="translate(0,0)"/>
<path d="" fill="#030303" transform="translate(0,0)"/>
<path d="" fill="#040404" transform="translate(0,0)"/>
<path d="" fill="#050505" transform="translate(0,0)"/>
<path d="" fill="#030303" transform="translate(0,0)"/>
<path d="" fill="#050505" transform="translate(0,0)"/>
<path d="" fill="#050505" transform="translate(0,0)"/>
<path d="" fill="#040404" transform="translate(0,0)"/>
<path d="" fill="#030303" transform="translate(0,0)"/>
<path d="" fill="#080808" transform="translate(0,0)"/>
<path d="" fill="#030303" transform="translate(0,0)"/>
<path d="" fill="#040404" transform="translate(0,0)"/>
<path d="" fill="#050505" transform="translate(0,0)"/>
<path d="" fill="#030303" transform="translate(0,0)"/>
<path d="" fill="#070707" transform="translate(0,0)"/>
<path d="" fill="#030303" transform="translate(0,0)"/>
<path d="" fill="#040404" transform="translate(0,0)"/>
<path d="" fill="#060606" transform="translate(0,0)"/>
<path d="" fill="#040404" transform="translate(0,0)"/>
<path d="" fill="#030303" transform="translate(0,0)"/>
<path d="" fill="#060606" transform="translate(0,0)"/>
<path d="" fill="#040404" transform="translate(0,0)"/>
<path d="" fill="#060606" transform="translate(0,0)"/>
<path d="" fill="#030303" transform="translate(0,0)"/>
<path d="" fill="#050505" transform="translate(0,0)"/>
<path d="" fill="#050505" transform="translate(0,0)"/>
<path d="" fill="#050505" transform="translate(0,0)"/>
<path d="" fill="#030303" transform="translate(0,0)"/>
<path d="" fill="#080808" transform="translate(0,0)"/>
<path d="" fill="#070707" transform="translate(0,0)"/>
<path d="" fill="#040404" transform="translate(0,0)"/>
<path d="" fill="#070707" transform="translate(0,0)"/>
<path d="" fill="#030303" transform="translate(0,0)"/>
<path d="" fill="#050505" transform="translate(0,0)"/>
<path d="" fill="#030303" transform="translate(0,0)"/>
<path d="" fill="#060606" transform="translate(0,0)"/>
<path d="" fill="#030303" transform="translate(0,0)"/>
<path d="" fill="#0C0C0C" transform="translate(0,0)"/>
<path d="" fill="#050505" transform="translate(0,0)"/>
<path d="" fill="#050505" transform="translate(0,0)"/>
<path d="" fill="#080808" transform="translate(0,0)"/>
<path d="" fill="#070707" transform="translate(0,0)"/>
<path d="" fill="#030303" transform="translate(0,0)"/>
<path d="" fill="#050505" transform="translate(0,0)"/>
<path d="" fill="#030303" transform="translate(0,0)"/>
<path d="" fill="#030303" transform="translate(0,0)"/>
<path d="" fill="#050505" transform="translate(0,0)"/>
<path d="" fill="#040404" transform="translate(0,0)"/>
<path d="" fill="#080808" transform="translate(0,0)"/>
<path d="" fill="#030303" transform="translate(0,0)"/>
<path d="" fill="#030303" transform="translate(0,0)"/>
<path d="" fill="#060606" transform="translate(0,0)"/>
<path d="" fill="#030303" transform="translate(0,0)"/>
<path d="" fill="#030303" transform="translate(0,0)"/>
<path d="" fill="#030303" transform="translate(0,0)"/>
<path d="" fill="#080808" transform="translate(0,0)"/>
<path d="" fill="#030303" transform="translate(0,0)"/>
<path d="" fill="#070707" transform="translate(0,0)"/>
<path d="" fill="#030303" transform="translate(0,0)"/>
<path d="" fill="#050505" transform="translate(0,0)"/>
<path d="" fill="#050505" transform="translate(0,0)"/>
<path d="" fill="#030303" transform="translate(0,0)"/>
<path d="" fill="#040404" transform="translate(0,0)"/>
<path d="" fill="#040404" transform="translate(0,0)"/>
<path d="" fill="#030303" transform="translate(0,0)"/>
<path d="" fill="#0A0A0A" transform="translate(0,0)"/>
<path d="" fill="#030303" transform="translate(0,0)"/>
<path d="" fill="#060606" transform="translate(0,0)"/>
<path d="" fill="#050505" transform="translate(0,0)"/>
<path d="" fill="#070707" transform="translate(0,0)"/>
<path d="" fill="#050505" transform="translate(0,0)"/>
<path d="" fill="#030303" transform="translate(0,0)"/>
<path d="" fill="#040404" transform="translate(0,0)"/>
<path d="" fill="#050505" transform="translate(0,0)"/>
<path d="" fill="#030303" transform="translate(0,0)"/>
<path d="" fill="#030303" transform="translate(0,0)"/>
<path d="" fill="#050505" transform="translate(0,0)"/>
<path d="" fill="#030303" transform="translate(0,0)"/>
<path d="" fill="#0A0A0A" transform="translate(0,0)"/>
<path d="" fill="#030303" transform="translate(0,0)"/>
<path d="" fill="#050505" transform="translate(0,0)"/>
<path d="" fill="#040404" transform="translate(0,0)"/>
<path d="" fill="#050505" transform="translate(0,0)"/>
<path d="" fill="#050505" transform="translate(0,0)"/>
<path d="" fill="#050505" transform="translate(0,0)"/>
<path d="" fill="#0A0A0A" transform="translate(0,0)"/>
<path d="" fill="#060606" transform="translate(0,0)"/>
<path d="" fill="#040404" transform="translate(0,0)"/>
<path d="" fill="#050505" transform="translate(0,0)"/>
<path d="" fill="#070707" transform="translate(0,0)"/>
<path d="" fill="#050505" transform="translate(0,0)"/>
<path d="" fill="#030303" transform="translate(0,0)"/>
<path d="" fill="#060606" transform="translate(0,0)"/>
<path d="" fill="#030303" transform="translate(0,0)"/>
<path d="" fill="#030303" transform="translate(0,0)"/>
<path d="" fill="#030303" transform="translate(0,0)"/>
</svg>
